<svg width="114" height="114" viewBox="0 0 114 114" fill="none" xmlns="http://www.w3.org/2000/svg">
<path d="M56.5 96.1802C82.1796 96.1802 103 89.4251 103 81.093C103 72.755 82.1796 66 56.5 66C30.8204 66 10 72.755 10 81.093C10 89.4251 30.8204 96.1802 56.5 96.1802ZM97.7106 92.6624C96.5645 93.1894 95.4014 93.6786 94.2231 94.1294C93.8569 94.2743 93.5024 94.4193 93.1246 94.5585C81.3342 98.5392 68.9523 100.496 56.5058 100.345C44.0961 100.502 31.7446 98.5477 19.8871 94.5585C19.5093 94.4193 19.1547 94.2685 18.7885 94.1294C17.1056 93.4861 15.4532 92.7664 13.8362 91.9724C12.8627 91.4888 11.9069 90.9705 10.9707 90.4185C10.651 90.2445 10.3023 90.0822 10 89.8966V95.907C10 101.224 27.6526 111 56.5 111C85.3474 111 103 101.224 103 95.907V89.9024C102.698 90.0822 102.349 90.2445 102.041 90.4243C100.639 91.2471 99.1932 91.9942 97.7106 92.6624Z" fill="url(#paint0_linear_1_3)"/>
<path d="M86.0795 69.8138C82.9625 74.7827 78.6174 78.8644 73.4635 81.665C68.3373 84.4465 62.5743 85.8431 56.7435 85.7168C51.3019 85.9598 45.8905 84.7846 41.04 82.3062C36.1625 79.8115 32.0079 76.1051 28.975 71.5428C16.283 49.8353 30.3383 29.5242 33.1883 25.6197C35.7197 22.911 37.4939 19.5839 38.3325 15.9725C39.1763 12.3474 39.0568 8.56458 37.9858 5C44.0848 9.58375 68.5283 20.4755 64.2295 55.4972C71.3355 50.1012 77.0545 41.0288 77.748 25.9712C84.5405 31.011 96.6768 51.9158 86.0795 69.8138Z" fill="url(#paint1_linear_1_3)" stroke="#FFBE30" stroke-width="6" stroke-linecap="round" stroke-linejoin="round"/>
<defs>
<linearGradient id="paint0_linear_1_3" x1="56.5" y1="66" x2="56.5" y2="111" gradientUnits="userSpaceOnUse">
<stop stop-color="#34BC6F"/>
<stop offset="1" stop-color="#185633"/>
</linearGradient>
<linearGradient id="paint1_linear_1_3" x1="57" y1="5" x2="57" y2="85.7481" gradientUnits="userSpaceOnUse">
<stop stop-color="#FF4230"/>
<stop offset="1" stop-color="#FFBE30"/>
</linearGradient>
</defs>
</svg>
